<?xml version="1.0" encoding="UTF-8"?><svg id="Layer_1" xmlns="http://www.w3.org/2000/svg" viewBox="0 0 147.2 142.86"><defs><style>.cls-1{fill:#fff;}.cls-2{fill:#7d64ff;}</style></defs><path class="cls-2" d="M147.21,142.86H0L49.01,38.33l29.52,21.7L117.03,0l30.18,142.86Zm-53.97-22.58h.31c3.64,0,7.15-1.4,9.77-3.93,1.35-1.22,2.42-2.71,3.14-4.38,.72-1.67,1.09-3.47,1.06-5.28,.06-1.75-.27-3.49-.97-5.1-.7-1.6-1.75-3.03-3.08-4.18-2.23-2.24-5.24-3.53-8.4-3.62h-.24c-.41,0-.83,.05-1.22,.17l7.77-11.55-6.19-4.32-2.93,4.32-7.49,11.44c-1.29,1.9-2.36,3.57-3.03,4.73-.69,1.23-1.29,2.51-1.78,3.83-.56,1.4-.85,2.9-.85,4.41-.02,1.79,.34,3.57,1.06,5.22,.71,1.65,1.77,3.12,3.09,4.34,2.59,2.52,6.07,3.93,9.68,3.93l.29-.02Zm-32.91-12.43l8.58,12.13h9.17l-10.09-14.08,8.96-12.44-5.95-4.12-2.63,3.47-8.06,11.36v-22.85l-8.03-6.55v45.2h8.03v-12.14h.01Zm32.92,4.87c-1.57,0-3.07-.62-4.18-1.73-1.11-1.11-1.73-2.61-1.73-4.18s.62-3.07,1.73-4.18c1.11-1.11,2.61-1.73,4.18-1.73h.05c.78,0,1.55,.16,2.26,.46,.72,.31,1.36,.75,1.9,1.32,.57,.52,1.02,1.15,1.32,1.86,.31,.71,.46,1.47,.46,2.24-.02,1.58-.66,3.08-1.78,4.19s-2.63,1.73-4.21,1.74h0Z"/><path class="cls-1" d="M93.23,120.29h.31c3.64,0,7.15-1.4,9.77-3.93,1.35-1.22,2.42-2.71,3.14-4.38,.72-1.67,1.09-3.47,1.06-5.28,.06-1.75-.27-3.49-.97-5.1-.7-1.6-1.75-3.03-3.08-4.18-2.23-2.24-5.24-3.53-8.4-3.62h-.24c-.41,0-.83,.05-1.22,.17l7.77-11.55-6.19-4.32-2.93,4.32-7.49,11.44c-1.29,1.9-2.36,3.57-3.03,4.73-.69,1.23-1.29,2.51-1.78,3.83-.56,1.4-.85,2.9-.85,4.41-.02,1.79,.34,3.57,1.06,5.22,.71,1.65,1.77,3.12,3.09,4.34,2.59,2.52,6.07,3.93,9.68,3.93l.29-.02Z"/><polygon class="cls-1" points="60.32 107.85 68.9 119.99 78.07 119.99 67.98 105.91 76.95 93.46 71 89.35 68.37 92.81 60.31 104.18 60.31 81.33 52.28 74.78 52.28 119.98 60.31 119.98 60.31 107.84 60.32 107.85"/><path class="cls-2" d="M93.24,112.71c-1.57,0-3.07-.62-4.18-1.73-1.11-1.11-1.73-2.61-1.73-4.18s.62-3.07,1.73-4.18c1.11-1.11,2.61-1.73,4.18-1.73h.05c.78,0,1.55,.16,2.26,.46,.72,.31,1.36,.75,1.9,1.32,.57,.52,1.02,1.15,1.32,1.86,.31,.71,.46,1.47,.46,2.24-.02,1.58-.66,3.08-1.78,4.19s-2.63,1.73-4.21,1.74h0Z"/></svg>